<svg width="230" height="52" viewBox="0 0 230 52" fill="none" xmlns="http://www.w3.org/2000/svg">
<path d="M55.3828 26.1562C55.3828 28.5 55.6497 30.5443 56.1836 32.2891C56.7174 34.0339 57.4206 35.4857 58.293 36.6445C59.1784 37.8034 60.181 38.6758 61.3008 39.2617C62.4336 39.8346 63.5924 40.1211 64.7773 40.1211C65.6237 40.1211 66.457 39.9648 67.2773 39.6523C68.1107 39.3398 68.918 38.8711 69.6992 38.2461C70.4805 37.6211 71.2292 36.8398 71.9453 35.9023C72.6745 34.9648 73.3516 33.8646 73.9766 32.6016L74.1914 32.1914L74.9922 32.7969L74.7773 33.207C74.0612 34.6523 73.2669 35.9219 72.3945 37.0156C71.5352 38.1094 70.6172 39.0273 69.6406 39.7695C68.6641 40.4987 67.6484 41.0521 66.5938 41.4297C65.5521 41.8073 64.4844 41.9961 63.3906 41.9961C62.4531 41.9961 61.5221 41.8594 60.5977 41.5859C59.6862 41.3255 58.8138 40.9284 57.9805 40.3945C57.1602 39.8477 56.3919 39.1641 55.6758 38.3438C54.9727 37.5234 54.3607 36.5664 53.8398 35.4727C53.319 34.3659 52.9089 33.1224 52.6094 31.7422C52.3229 30.349 52.1797 28.819 52.1797 27.1523C52.1797 24.9518 52.362 22.9596 52.7266 21.1758C53.1042 19.3789 53.6055 17.7839 54.2305 16.3906C54.8685 14.9844 55.6042 13.7669 56.4375 12.7383C57.2839 11.7096 58.1693 10.8633 59.0938 10.1992C60.0182 9.52214 60.9622 9.02083 61.9258 8.69531C62.8893 8.36979 63.8138 8.20703 64.6992 8.20703C65.8581 8.20703 66.9258 8.40885 67.9023 8.8125C68.8789 9.20312 69.7188 9.76302 70.4219 10.4922C71.125 11.2083 71.6719 12.0872 72.0625 13.1289C72.4661 14.1576 72.668 15.3034 72.668 16.5664C72.668 17.7773 72.4792 18.9167 72.1016 19.9844C71.737 21.0521 71.2422 21.9896 70.6172 22.7969C70.0052 23.5911 69.2956 24.2227 68.4883 24.6914C67.694 25.1602 66.8607 25.3945 65.9883 25.3945C65.4023 25.3945 64.8555 25.2904 64.3477 25.082C63.8398 24.8737 63.3971 24.5807 63.0195 24.2031C62.6419 23.8255 62.3424 23.3633 62.1211 22.8164C61.8997 22.2695 61.7891 21.6641 61.7891 21C61.7891 20.362 61.8867 19.75 62.082 19.1641C62.2773 18.5651 62.5247 18.0182 62.8242 17.5234C63.1237 17.0156 63.4492 16.5729 63.8008 16.1953C64.1654 15.8047 64.5169 15.4987 64.8555 15.2773L65.3828 15.8047C65.1094 16.1172 64.849 16.4557 64.6016 16.8203C64.3672 17.1719 64.1589 17.556 63.9766 17.9727C63.7943 18.3763 63.651 18.8125 63.5469 19.2812C63.4427 19.75 63.3906 20.2578 63.3906 20.8047C63.3906 21.3646 63.4557 21.8659 63.5859 22.3086C63.7292 22.7513 63.918 23.1289 64.1523 23.4414C64.3997 23.7539 64.6797 23.9948 64.9922 24.1641C65.3047 24.3203 65.6367 24.3984 65.9883 24.3984C66.4701 24.3984 66.9518 24.2227 67.4336 23.8711C67.9154 23.5065 68.3451 22.9792 68.7227 22.2891C69.1003 21.5859 69.4062 20.7266 69.6406 19.7109C69.875 18.6953 69.9922 17.5234 69.9922 16.1953C69.9922 14.9974 69.8555 13.9622 69.582 13.0898C69.3216 12.2044 68.957 11.4753 68.4883 10.9023C68.0195 10.3294 67.4661 9.90625 66.8281 9.63281C66.1901 9.34635 65.5065 9.20312 64.7773 9.20312C64.2565 9.20312 63.6641 9.32031 63 9.55469C62.3359 9.77604 61.6523 10.1471 60.9492 10.668C60.2591 11.1888 59.582 11.8789 58.918 12.7383C58.2539 13.5846 57.6549 14.6393 57.1211 15.9023C56.6003 17.1523 56.1771 18.6237 55.8516 20.3164C55.5391 22.0091 55.3828 23.9557 55.3828 26.1562ZM90.5586 32.7969L90.3438 33.207C89.901 34.0924 89.3086 34.8021 88.5664 35.3359C87.8372 35.8568 87.043 36.1953 86.1836 36.3516C85.9492 37.0156 85.6432 37.6341 85.2656 38.207C84.901 38.7669 84.4779 39.2552 83.9961 39.6719C83.5273 40.0885 82.9935 40.4141 82.3945 40.6484C81.8086 40.8828 81.1706 41 80.4805 41C79.4779 41 78.5729 40.7917 77.7656 40.375C76.9714 39.9453 76.2943 39.3724 75.7344 38.6562C75.1745 37.9271 74.7448 37.0807 74.4453 36.1172C74.1458 35.1406 73.9961 34.099 73.9961 32.9922C73.9961 32.0286 74.1068 31.1562 74.3281 30.375C74.5495 29.5807 74.8294 28.8776 75.168 28.2656C75.5065 27.6406 75.8841 27.1003 76.3008 26.6445C76.7174 26.1758 77.1276 25.7917 77.5312 25.4922C77.9349 25.1927 78.2995 24.9714 78.625 24.8281C78.9635 24.6719 79.2174 24.5938 79.3867 24.5938L79.6406 25.2773C79.1068 25.668 78.6315 26.2148 78.2148 26.918C77.8503 27.5169 77.5182 28.3112 77.2188 29.3008C76.9323 30.2904 76.7891 31.5208 76.7891 32.9922C76.7891 33.8906 76.8737 34.763 77.043 35.6094C77.2122 36.4557 77.4596 37.2044 77.7852 37.8555C78.1107 38.5065 78.5078 39.0273 78.9766 39.418C79.4583 39.8086 79.9987 40.0039 80.5977 40.0039C81.418 40.0039 82.0951 39.6784 82.6289 39.0273C83.1758 38.3633 83.5794 37.4583 83.8398 36.3125C83.1628 36.1693 82.5182 35.9023 81.9062 35.5117C81.2943 35.1211 80.7539 34.6393 80.2852 34.0664C79.8164 33.4805 79.4388 32.8099 79.1523 32.0547C78.8789 31.2995 78.7422 30.4792 78.7422 29.5938C78.7422 28.8646 78.8333 28.2266 79.0156 27.6797C79.2109 27.1198 79.4648 26.6576 79.7773 26.293C80.0898 25.9154 80.4479 25.6354 80.8516 25.4531C81.2682 25.2578 81.7044 25.1602 82.1602 25.1602C82.694 25.1602 83.2409 25.3164 83.8008 25.6289C84.3607 25.9284 84.8685 26.3841 85.3242 26.9961C85.7799 27.5951 86.151 28.3503 86.4375 29.2617C86.724 30.1732 86.8672 31.2344 86.8672 32.4453C86.8672 32.901 86.8411 33.3503 86.7891 33.793C86.737 34.2357 86.6589 34.6654 86.5547 35.082C87.1797 34.8997 87.7461 34.6068 88.2539 34.2031C88.7747 33.7995 89.2044 33.2656 89.543 32.6016L89.7578 32.1914L90.5586 32.7969ZM80.0312 29.4375C80.0312 30.2057 80.1354 30.9154 80.3438 31.5664C80.5651 32.2044 80.8581 32.7708 81.2227 33.2656C81.5872 33.7474 82.0104 34.151 82.4922 34.4766C82.974 34.8021 83.4883 35.0299 84.0352 35.1602C84.1003 34.7956 84.1393 34.418 84.1523 34.0273C84.1784 33.6237 84.1914 33.2135 84.1914 32.7969C84.1914 31.8724 84.1198 31.0391 83.9766 30.2969C83.8333 29.5417 83.6445 28.9036 83.4102 28.3828C83.1758 27.849 82.9023 27.4388 82.5898 27.1523C82.2773 26.8659 81.9583 26.7227 81.6328 26.7227C81.1901 26.7227 80.8125 26.9635 80.5 27.4453C80.1875 27.9141 80.0312 28.5781 80.0312 29.4375ZM96.3789 29.8477C96.5352 29.6003 96.6654 29.2943 96.7695 28.9297C96.8867 28.5651 96.9453 28.2005 96.9453 27.8359C96.9453 27.3932 96.8346 27.0091 96.6133 26.6836C96.3919 26.3581 95.9948 26.1953 95.4219 26.1953C95.0443 26.1953 94.6602 26.332 94.2695 26.6055C93.8789 26.8789 93.5143 27.2891 93.1758 27.8359C92.8503 28.3828 92.5833 29.0729 92.375 29.9062C92.1667 30.7396 92.0625 31.7161 92.0625 32.8359C92.0625 33.7214 92.1536 34.5286 92.3359 35.2578C92.5182 35.987 92.7852 36.612 93.1367 37.1328C93.4883 37.6536 93.9115 38.0638 94.4062 38.3633C94.9141 38.6497 95.4805 38.793 96.1055 38.793C96.5612 38.793 97.0234 38.6758 97.4922 38.4414C97.974 38.207 98.4557 37.8424 98.9375 37.3477C99.4323 36.8529 99.9401 36.2148 100.461 35.4336C100.982 34.6393 101.516 33.6953 102.062 32.6016L102.258 32.1914L103.059 32.7969L102.863 33.207C102.16 34.6003 101.457 35.7917 100.754 36.7812C100.064 37.7708 99.3802 38.5781 98.7031 39.2031C98.026 39.8281 97.362 40.2839 96.7109 40.5703C96.0729 40.8568 95.4544 41 94.8555 41C94.0091 41 93.2539 40.8242 92.5898 40.4727C91.9258 40.1211 91.3659 39.6458 90.9102 39.0469C90.4544 38.4349 90.1029 37.7318 89.8555 36.9375C89.6211 36.1302 89.5039 35.2839 89.5039 34.3984C89.5039 32.9922 89.6927 31.7161 90.0703 30.5703C90.4609 29.4115 90.9622 28.4219 91.5742 27.6016C92.1862 26.7812 92.8763 26.1432 93.6445 25.6875C94.4128 25.2318 95.1875 25.0039 95.9688 25.0039C96.5677 25.0039 97.069 25.0885 97.4727 25.2578C97.8763 25.4271 98.2018 25.6419 98.4492 25.9023C98.6966 26.1628 98.8724 26.4427 98.9766 26.7422C99.0807 27.0417 99.1328 27.3281 99.1328 27.6016C99.1328 27.875 99.0742 28.1615 98.957 28.4609C98.8398 28.7474 98.6641 29.0208 98.4297 29.2812C98.2083 29.5286 97.9414 29.7565 97.6289 29.9648C97.3164 30.1602 96.9648 30.3034 96.5742 30.3945L96.3789 29.8477ZM118.801 32.7969L118.605 33.207C118.059 34.3008 117.538 35.3229 117.043 36.2734C116.548 37.224 116.053 38.0508 115.559 38.7539C115.064 39.457 114.556 40.0104 114.035 40.4141C113.527 40.8047 112.98 41 112.395 41C111.809 41 111.236 40.8438 110.676 40.5312C110.116 40.2188 109.556 39.7826 108.996 39.2227C108.449 38.6628 107.896 38.0117 107.336 37.2695C106.789 36.5143 106.223 35.694 105.637 34.8086L104.953 34.9258C104.927 36.0716 104.888 37.1068 104.836 38.0312C104.784 38.9427 104.719 39.6914 104.641 40.2773C104.602 40.5378 104.491 40.7266 104.309 40.8438C104.139 40.9479 103.905 41 103.605 41C103.254 41 102.961 40.9544 102.727 40.8633C102.492 40.7721 102.31 40.6615 102.18 40.5312C102.036 40.388 101.939 40.2383 101.887 40.082C101.822 39.9128 101.789 39.75 101.789 39.5938C101.789 38.7604 101.926 37.7253 102.199 36.4883V26.3906C102.199 23.8906 102.329 21.7292 102.59 19.9062C102.85 18.0703 103.202 16.5534 103.645 15.3555C104.087 14.1445 104.602 13.2526 105.188 12.6797C105.786 12.0938 106.418 11.8008 107.082 11.8008C107.798 11.8008 108.306 12.0352 108.605 12.5039C108.918 12.9596 109.074 13.5911 109.074 14.3984C109.074 15.1016 108.97 16.0065 108.762 17.1133C108.553 18.207 108.26 19.4115 107.883 20.7266C107.518 22.0417 107.089 23.4154 106.594 24.8477C106.099 26.2669 105.565 27.6536 104.992 29.0078V29.4375C105.357 28.8516 105.78 28.2917 106.262 27.7578C106.757 27.224 107.284 26.7552 107.844 26.3516C108.404 25.9349 108.977 25.6094 109.562 25.375C110.161 25.1276 110.747 25.0039 111.32 25.0039C111.828 25.0039 112.29 25.0755 112.707 25.2188C113.137 25.362 113.508 25.5703 113.82 25.8438C114.133 26.1172 114.374 26.4622 114.543 26.8789C114.712 27.2826 114.797 27.7513 114.797 28.2852C114.797 28.832 114.673 29.3789 114.426 29.9258C114.191 30.4727 113.814 31 113.293 31.5078C112.785 32.0156 112.128 32.4974 111.32 32.9531C110.513 33.3958 109.536 33.7865 108.391 34.125C108.469 34.2422 108.599 34.4375 108.781 34.7109C108.964 34.9844 109.178 35.2969 109.426 35.6484C109.686 35.987 109.966 36.3451 110.266 36.7227C110.565 37.0872 110.871 37.4258 111.184 37.7383C111.509 38.0378 111.828 38.2917 112.141 38.5C112.453 38.6953 112.74 38.793 113 38.793C113.352 38.793 113.71 38.6497 114.074 38.3633C114.439 38.0638 114.816 37.6471 115.207 37.1133C115.611 36.5664 116.027 35.9154 116.457 35.1602C116.887 34.3919 117.336 33.5391 117.805 32.6016L118 32.1914L118.801 32.7969ZM104.992 31.1172C104.992 31.4167 104.986 31.6836 104.973 31.918C104.973 32.1393 104.973 32.3607 104.973 32.582C104.973 32.7904 104.966 33.0052 104.953 33.2266C104.953 33.4479 104.953 33.6953 104.953 33.9688C106.281 33.7734 107.401 33.513 108.312 33.1875C109.237 32.862 109.986 32.4844 110.559 32.0547C111.132 31.625 111.548 31.1562 111.809 30.6484C112.069 30.1276 112.199 29.5807 112.199 29.0078C112.199 28.7083 112.147 28.4219 112.043 28.1484C111.952 27.862 111.815 27.6146 111.633 27.4062C111.451 27.1849 111.223 27.0091 110.949 26.8789C110.689 26.7487 110.396 26.6836 110.07 26.6836C109.615 26.6836 109.152 26.8073 108.684 27.0547C108.228 27.2891 107.772 27.6081 107.316 28.0117C106.874 28.4154 106.451 28.8906 106.047 29.4375C105.656 29.9714 105.305 30.5312 104.992 31.1172ZM106.711 12.7969C106.438 12.7969 106.197 13.0638 105.988 13.5977C105.793 14.1315 105.624 14.9648 105.48 16.0977C105.337 17.2174 105.22 18.6497 105.129 20.3945C105.038 22.1263 104.966 24.1966 104.914 26.6055C105.461 25.1602 105.904 23.806 106.242 22.543C106.581 21.2669 106.841 20.1211 107.023 19.1055C107.219 18.0768 107.349 17.1849 107.414 16.4297C107.479 15.6615 107.512 15.0495 107.512 14.5938C107.512 13.9036 107.447 13.4349 107.316 13.1875C107.199 12.9271 106.997 12.7969 106.711 12.7969ZM117.941 34.5938C117.941 33.2135 117.993 31.8268 118.098 30.4336C118.202 29.0404 118.339 27.6276 118.508 26.1953H116.73L116.945 25.0039H118.664C118.846 23.6758 119.029 22.3477 119.211 21.0195C119.406 19.6784 119.582 18.3372 119.738 16.9961H121.73C121.704 17.2826 121.665 17.6992 121.613 18.2461C121.574 18.7799 121.522 19.4049 121.457 20.1211C121.405 20.8242 121.353 21.599 121.301 22.4453C121.249 23.2786 121.197 24.1315 121.145 25.0039H124.934L124.738 26.1953H121.066C121.014 26.9375 120.969 27.6667 120.93 28.3828C120.891 29.099 120.852 29.7826 120.812 30.4336C120.786 31.0716 120.767 31.6641 120.754 32.2109C120.741 32.7448 120.734 33.207 120.734 33.5977C120.734 34.5872 120.76 35.4141 120.812 36.0781C120.878 36.7422 120.969 37.276 121.086 37.6797C121.216 38.0833 121.372 38.3698 121.555 38.5391C121.75 38.7083 121.971 38.793 122.219 38.793C122.544 38.793 122.902 38.6302 123.293 38.3047C123.697 37.9661 124.113 37.5169 124.543 36.957C124.973 36.3971 125.409 35.7461 125.852 35.0039C126.294 34.2487 126.724 33.4479 127.141 32.6016L127.336 32.1914L128.137 32.7969L127.941 33.207C127.342 34.418 126.743 35.5052 126.145 36.4688C125.559 37.4323 124.979 38.2526 124.406 38.9297C123.833 39.5938 123.273 40.1081 122.727 40.4727C122.18 40.8242 121.652 41 121.145 41C120.637 41 120.181 40.8828 119.777 40.6484C119.387 40.4141 119.055 40.043 118.781 39.5352C118.508 39.0143 118.299 38.3503 118.156 37.543C118.013 36.7357 117.941 35.7526 117.941 34.5938ZM139.191 36.1562C139.191 36.8984 139.257 37.5234 139.387 38.0312C139.517 38.5391 139.745 38.793 140.07 38.793C140.266 38.793 140.474 38.7018 140.695 38.5195C140.93 38.3242 141.197 38.0117 141.496 37.582C141.796 37.1523 142.134 36.599 142.512 35.9219C142.902 35.2318 143.345 34.3919 143.84 33.4023L144.426 32.1914L145.227 32.7969L144.641 34.0078C144.094 35.1016 143.579 36.0846 143.098 36.957C142.629 37.8164 142.18 38.5456 141.75 39.1445C141.32 39.7435 140.897 40.2057 140.48 40.5312C140.077 40.8438 139.673 41 139.27 41C138.84 41 138.475 40.8828 138.176 40.6484C137.889 40.4141 137.648 40.0951 137.453 39.6914C137.258 39.2747 137.108 38.7995 137.004 38.2656C136.9 37.7188 136.828 37.1393 136.789 36.5273C136.477 37.1523 136.132 37.7383 135.754 38.2852C135.376 38.819 134.979 39.2878 134.562 39.6914C134.159 40.0951 133.736 40.4141 133.293 40.6484C132.85 40.8828 132.408 41 131.965 41C131.314 41 130.682 40.8633 130.07 40.5898C129.458 40.3164 128.911 39.8997 128.43 39.3398C127.961 38.7799 127.583 38.0768 127.297 37.2305C127.01 36.3711 126.867 35.362 126.867 34.2031C126.867 32.849 127.043 31.612 127.395 30.4922C127.746 29.3594 128.221 28.3893 128.82 27.582C129.419 26.7617 130.109 26.1302 130.891 25.6875C131.672 25.2318 132.492 25.0039 133.352 25.0039C133.872 25.0039 134.354 25.1211 134.797 25.3555C135.24 25.5898 135.624 25.8763 135.949 26.2148C136.288 26.5404 136.568 26.8919 136.789 27.2695C137.01 27.6341 137.16 27.9466 137.238 28.207L137.473 26.3125C137.499 26.0651 137.616 25.8568 137.824 25.6875C138.046 25.5182 138.286 25.388 138.547 25.2969C138.807 25.1927 139.061 25.1211 139.309 25.082C139.556 25.0299 139.732 25.0039 139.836 25.0039C139.992 25.0039 140.096 25.0299 140.148 25.082C140.201 25.1341 140.227 25.2383 140.227 25.3945C140.227 25.5898 140.168 25.987 140.051 26.5859C139.947 27.1719 139.829 27.9271 139.699 28.8516C139.582 29.763 139.465 30.8372 139.348 32.0742C139.243 33.3112 139.191 34.6719 139.191 36.1562ZM137.043 31C137.043 30.401 136.952 29.8151 136.77 29.2422C136.587 28.6562 136.34 28.1419 136.027 27.6992C135.715 27.2435 135.35 26.8789 134.934 26.6055C134.53 26.332 134.1 26.1953 133.645 26.1953C133.085 26.1953 132.557 26.3581 132.062 26.6836C131.581 26.9961 131.158 27.4453 130.793 28.0312C130.441 28.6042 130.161 29.3008 129.953 30.1211C129.745 30.9284 129.641 31.8203 129.641 32.7969C129.641 34.75 129.947 36.2409 130.559 37.2695C131.171 38.2852 131.984 38.793 133 38.793C133.443 38.793 133.898 38.6172 134.367 38.2656C134.849 37.901 135.285 37.3867 135.676 36.7227C136.079 36.0456 136.405 35.2253 136.652 34.2617C136.913 33.2982 137.043 32.2109 137.043 31ZM145.422 32.4062L145.227 32.7969L145.031 33.207L144.23 32.6016L144.426 32.1914C144.751 31.5273 145.018 30.8633 145.227 30.1992C145.448 29.5221 145.624 28.8906 145.754 28.3047C145.897 27.7188 146.014 27.2044 146.105 26.7617C146.197 26.319 146.288 26 146.379 25.8047C146.457 25.6484 146.568 25.5247 146.711 25.4336C146.867 25.3294 147.023 25.2448 147.18 25.1797C147.349 25.1146 147.505 25.069 147.648 25.043C147.805 25.0169 147.915 25.0039 147.98 25.0039C148.267 25.0039 148.456 25.0625 148.547 25.1797C148.651 25.2969 148.703 25.5052 148.703 25.8047C148.703 25.9479 148.671 26.306 148.605 26.8789C148.553 27.4388 148.488 28.1484 148.41 29.0078C148.345 29.8542 148.28 30.8112 148.215 31.8789C148.163 32.9336 148.137 34.0273 148.137 35.1602C148.137 35.9805 148.176 36.6315 148.254 37.1133C148.332 37.582 148.43 37.9336 148.547 38.168C148.677 38.4023 148.814 38.5521 148.957 38.6172C149.113 38.6823 149.27 38.7148 149.426 38.7148C149.634 38.7148 149.868 38.6237 150.129 38.4414C150.389 38.2591 150.695 37.9401 151.047 37.4844C151.398 37.0156 151.802 36.3906 152.258 35.6094C152.714 34.8151 153.247 33.8125 153.859 32.6016L154.074 32.1914L154.875 32.7969L154.66 33.207C154.165 34.1706 153.671 35.1211 153.176 36.0586C152.694 36.9961 152.199 37.8294 151.691 38.5586C151.197 39.2878 150.695 39.8802 150.188 40.3359C149.68 40.7786 149.172 41 148.664 41C148.13 41 147.668 40.8958 147.277 40.6875C146.9 40.4661 146.581 40.1081 146.32 39.6133C146.073 39.1185 145.884 38.4674 145.754 37.6602C145.637 36.8398 145.578 35.8307 145.578 34.6328C145.578 34.2943 145.578 33.9427 145.578 33.5781C145.578 33.2005 145.591 32.8099 145.617 32.4062H145.422ZM149.426 21C149.426 21.4557 149.27 21.8398 148.957 22.1523C148.658 22.4518 148.28 22.6016 147.824 22.6016C147.382 22.6016 147.004 22.4518 146.691 22.1523C146.379 21.8398 146.223 21.4557 146.223 21C146.223 20.5573 146.379 20.1797 146.691 19.8672C147.004 19.5547 147.382 19.3984 147.824 19.3984C148.28 19.3984 148.658 19.5547 148.957 19.8672C149.27 20.1797 149.426 20.5573 149.426 21ZM158.273 38.5195C158.508 38.5195 158.775 38.3698 159.074 38.0703C159.387 37.7578 159.719 37.3346 160.07 36.8008C160.422 36.2669 160.793 35.6419 161.184 34.9258C161.574 34.2096 161.978 33.4349 162.395 32.6016L162.59 32.1914L163.391 32.7969L163.195 33.207C162.505 34.5872 161.887 35.7721 161.34 36.7617C160.806 37.7383 160.305 38.5456 159.836 39.1836C159.367 39.8086 158.918 40.2708 158.488 40.5703C158.072 40.8568 157.642 41 157.199 41C156.613 41 156.105 40.8112 155.676 40.4336C155.259 40.043 154.908 39.3984 154.621 38.5C154.348 37.5885 154.146 36.3906 154.016 34.9062C153.872 33.4219 153.801 31.5859 153.801 29.3984C153.801 26.2995 153.931 23.6432 154.191 21.4297C154.452 19.2031 154.803 17.3802 155.246 15.9609C155.702 14.5286 156.223 13.4805 156.809 12.8164C157.408 12.1393 158.033 11.8008 158.684 11.8008C159.074 11.8008 159.4 11.9635 159.66 12.2891C159.934 12.6016 160.07 13.1745 160.07 14.0078C160.07 14.6589 160.018 15.401 159.914 16.2344C159.81 17.0677 159.673 17.9596 159.504 18.9102C159.335 19.8607 159.133 20.8503 158.898 21.8789C158.664 22.8945 158.417 23.9102 158.156 24.9258C157.896 25.9284 157.629 26.918 157.355 27.8945C157.082 28.8581 156.815 29.763 156.555 30.6094C156.633 32.2109 156.717 33.526 156.809 34.5547C156.913 35.5703 157.03 36.3711 157.16 36.957C157.303 37.543 157.466 37.9531 157.648 38.1875C157.831 38.4089 158.039 38.5195 158.273 38.5195ZM158.801 14.4766C158.801 14.2031 158.768 13.9883 158.703 13.832C158.638 13.6758 158.534 13.5977 158.391 13.5977C158.247 13.5977 158.104 13.7995 157.961 14.2031C157.818 14.6068 157.674 15.1536 157.531 15.8438C157.401 16.5339 157.277 17.3346 157.16 18.2461C157.056 19.1576 156.958 20.1276 156.867 21.1562C156.776 22.1719 156.704 23.2135 156.652 24.2812C156.6 25.349 156.568 26.3776 156.555 27.3672C156.867 26.2214 157.154 25.0495 157.414 23.8516C157.688 22.6406 157.928 21.4688 158.137 20.3359C158.345 19.2031 158.508 18.1354 158.625 17.1328C158.742 16.1172 158.801 15.2318 158.801 14.4766ZM190.734 34.0078C190.734 35.1536 190.76 36.0586 190.812 36.7227C190.878 37.3867 190.969 37.888 191.086 38.2266C191.216 38.5651 191.379 38.7799 191.574 38.8711C191.77 38.9622 191.997 39.0078 192.258 39.0078C192.609 39.0078 192.974 38.8971 193.352 38.6758C193.729 38.4544 194.1 38.168 194.465 37.8164C194.829 37.4648 195.174 37.0742 195.5 36.6445C195.839 36.2148 196.145 35.7982 196.418 35.3945C196.704 34.9779 196.945 34.5938 197.141 34.2422C197.349 33.8776 197.505 33.5977 197.609 33.4023L198.215 32.1914L199.016 32.7969L198.41 34.0078C198.306 34.2031 198.137 34.5221 197.902 34.9648C197.668 35.3945 197.375 35.8763 197.023 36.4102C196.672 36.931 196.275 37.4779 195.832 38.0508C195.389 38.6107 194.914 39.125 194.406 39.5938C193.898 40.0625 193.365 40.4466 192.805 40.7461C192.245 41.0456 191.672 41.1953 191.086 41.1953C190.552 41.1953 190.077 41.1042 189.66 40.9219C189.243 40.7396 188.892 40.4206 188.605 39.9648C188.319 39.4961 188.098 38.8646 187.941 38.0703C187.798 37.263 187.727 36.2409 187.727 35.0039C187.727 34.5221 187.733 34.0664 187.746 33.6367C187.772 33.194 187.805 32.6602 187.844 32.0352C187.18 33.3242 186.411 34.5677 185.539 35.7656C184.68 36.9635 183.755 38.0247 182.766 38.9492C181.776 39.8737 180.741 40.6094 179.66 41.1562C178.592 41.7161 177.512 41.9961 176.418 41.9961C175.728 41.9961 175.07 41.8724 174.445 41.625C173.82 41.3776 173.267 41 172.785 40.4922C172.303 39.9714 171.919 39.3073 171.633 38.5C171.346 37.6927 171.203 36.7292 171.203 35.6094C171.203 33.8125 171.405 32.0482 171.809 30.3164C172.199 28.5846 172.746 26.9115 173.449 25.2969C174.152 23.6693 174.979 22.1198 175.93 20.6484C176.88 19.1641 177.902 17.7904 178.996 16.5273C180.09 15.2643 181.236 14.125 182.434 13.1094C183.632 12.0807 184.829 11.2018 186.027 10.4727C187.225 9.74349 188.391 9.18359 189.523 8.79297C190.669 8.40234 191.737 8.20703 192.727 8.20703C193.82 8.20703 194.693 8.48698 195.344 9.04688C195.995 9.59375 196.32 10.375 196.32 11.3906C196.32 12.0677 196.184 12.7318 195.91 13.3828C195.65 14.0208 195.298 14.6393 194.855 15.2383C194.426 15.8242 193.931 16.3841 193.371 16.918C192.824 17.4388 192.271 17.9141 191.711 18.3438C191.151 18.7604 190.604 19.1315 190.07 19.457C189.549 19.7695 189.1 20.0169 188.723 20.1992L188.137 19.3984C188.462 19.2292 188.833 18.9948 189.25 18.6953C189.68 18.3958 190.109 18.0443 190.539 17.6406C190.969 17.237 191.385 16.7943 191.789 16.3125C192.206 15.8177 192.577 15.3034 192.902 14.7695C193.228 14.2227 193.488 13.6628 193.684 13.0898C193.879 12.5039 193.977 11.9245 193.977 11.3516C193.977 10.7917 193.827 10.3294 193.527 9.96484C193.241 9.58724 192.772 9.39844 192.121 9.39844C191.353 9.39844 190.52 9.60026 189.621 10.0039C188.723 10.3945 187.798 10.9544 186.848 11.6836C185.897 12.4128 184.94 13.2852 183.977 14.3008C183.026 15.3034 182.108 16.4167 181.223 17.6406C180.337 18.8516 179.51 20.1536 178.742 21.5469C177.987 22.9271 177.323 24.3659 176.75 25.8633C176.19 27.3477 175.747 28.8646 175.422 30.4141C175.096 31.9505 174.934 33.4805 174.934 35.0039C174.934 35.707 174.986 36.3581 175.09 36.957C175.194 37.543 175.363 38.0508 175.598 38.4805C175.832 38.8971 176.138 39.2227 176.516 39.457C176.893 39.6914 177.362 39.8086 177.922 39.8086C178.625 39.8086 179.315 39.6523 179.992 39.3398C180.669 39.0143 181.327 38.5781 181.965 38.0312C182.603 37.4844 183.215 36.8464 183.801 36.1172C184.4 35.388 184.96 34.6068 185.48 33.7734C186.001 32.9401 186.483 32.0872 186.926 31.2148C187.382 30.3294 187.785 29.457 188.137 28.5977C188.228 27.6211 188.332 26.6901 188.449 25.8047C188.566 24.9062 188.684 24.1055 188.801 23.4023C188.918 22.6992 189.029 22.1198 189.133 21.6641C189.237 21.1953 189.328 20.9089 189.406 20.8047C189.458 20.7135 189.569 20.6094 189.738 20.4922C189.908 20.375 190.096 20.2708 190.305 20.1797C190.526 20.0755 190.747 19.9909 190.969 19.9258C191.19 19.8477 191.379 19.8086 191.535 19.8086C191.926 19.8086 192.121 20.0039 192.121 20.3945C192.121 20.7591 192.095 21.1823 192.043 21.6641C191.991 22.1458 191.919 22.6471 191.828 23.168C191.737 23.6888 191.626 24.2161 191.496 24.75C191.379 25.2708 191.242 25.7526 191.086 26.1953C190.982 27.6146 190.897 28.9818 190.832 30.2969C190.767 31.599 190.734 32.8359 190.734 34.0078ZM200.773 28.6758C200.995 28.194 201.262 27.7318 201.574 27.2891C201.887 26.8464 202.245 26.4557 202.648 26.1172C203.052 25.7786 203.501 25.5117 203.996 25.3164C204.491 25.1081 205.031 25.0039 205.617 25.0039C206.398 25.0039 207.089 25.1927 207.688 25.5703C208.286 25.9349 208.788 26.4297 209.191 27.0547C209.595 27.6667 209.901 28.3828 210.109 29.2031C210.318 30.0104 210.422 30.8503 210.422 31.7227C210.422 33.0638 210.285 34.2747 210.012 35.3555C209.751 36.4232 209.393 37.3607 208.938 38.168C209.641 37.6341 210.35 36.9245 211.066 36.0391C211.796 35.1536 212.512 34.0078 213.215 32.6016L213.41 32.1914L214.211 32.7969L214.016 33.207C213.417 34.4049 212.759 35.4857 212.043 36.4492C211.327 37.4128 210.565 38.2331 209.758 38.9102C208.964 39.5742 208.13 40.0885 207.258 40.4531C206.385 40.8177 205.493 41 204.582 41C203.775 41 203.026 40.8242 202.336 40.4727C201.659 40.1211 201.138 39.6849 200.773 39.1641V48.4023C200.773 48.8971 200.734 49.3073 200.656 49.6328C200.591 49.9714 200.474 50.2383 200.305 50.4336C200.148 50.6419 199.934 50.7852 199.66 50.8633C199.387 50.9544 199.055 51 198.664 51C198.365 51 198.156 50.9479 198.039 50.8438C197.922 50.7526 197.863 50.6029 197.863 50.3945C197.863 50.3034 197.876 50.1406 197.902 49.9062C197.928 49.6719 197.954 49.3138 197.98 48.832C198.007 48.3633 198.033 47.7383 198.059 46.957C198.085 46.1888 198.098 45.2057 198.098 44.0078V33.207C198.098 31.7617 198.091 30.6094 198.078 29.75C198.065 28.8776 198.052 28.2005 198.039 27.7188C198.026 27.224 198.013 26.8724 198 26.6641C197.987 26.4557 197.98 26.2734 197.98 26.1172C197.98 25.987 198.046 25.8568 198.176 25.7266C198.306 25.5964 198.475 25.4792 198.684 25.375C198.892 25.2708 199.113 25.1862 199.348 25.1211C199.595 25.043 199.829 25.0039 200.051 25.0039C200.272 25.0039 200.448 25.0625 200.578 25.1797C200.708 25.2969 200.773 25.5052 200.773 25.8047V28.6758ZM204.582 26.7227C204.035 26.7227 203.527 26.9115 203.059 27.2891C202.603 27.6667 202.206 28.1549 201.867 28.7539C201.542 29.3398 201.281 29.9909 201.086 30.707C200.904 31.4232 200.812 32.1198 200.812 32.7969V35.043C200.812 35.7461 200.904 36.3841 201.086 36.957C201.281 37.5299 201.535 38.0182 201.848 38.4219C202.16 38.8255 202.525 39.138 202.941 39.3594C203.371 39.5677 203.82 39.6719 204.289 39.6719C205.396 39.6719 206.229 39.099 206.789 37.9531C207.362 36.8073 207.648 35.0104 207.648 32.5625C207.648 31.7292 207.59 30.9544 207.473 30.2383C207.355 29.5221 207.173 28.9036 206.926 28.3828C206.678 27.862 206.359 27.4583 205.969 27.1719C205.578 26.8724 205.116 26.7227 204.582 26.7227ZM215.969 28.6758C216.19 28.194 216.457 27.7318 216.77 27.2891C217.082 26.8464 217.44 26.4557 217.844 26.1172C218.247 25.7786 218.697 25.5117 219.191 25.3164C219.686 25.1081 220.227 25.0039 220.812 25.0039C221.594 25.0039 222.284 25.1927 222.883 25.5703C223.482 25.9349 223.983 26.4297 224.387 27.0547C224.79 27.6667 225.096 28.3828 225.305 29.2031C225.513 30.0104 225.617 30.8503 225.617 31.7227C225.617 33.0638 225.48 34.2747 225.207 35.3555C224.947 36.4232 224.589 37.3607 224.133 38.168C224.836 37.6341 225.546 36.9245 226.262 36.0391C226.991 35.1536 227.707 34.0078 228.41 32.6016L228.605 32.1914L229.406 32.7969L229.211 33.207C228.612 34.4049 227.954 35.4857 227.238 36.4492C226.522 37.4128 225.76 38.2331 224.953 38.9102C224.159 39.5742 223.326 40.0885 222.453 40.4531C221.581 40.8177 220.689 41 219.777 41C218.97 41 218.221 40.8242 217.531 40.4727C216.854 40.1211 216.333 39.6849 215.969 39.1641V48.4023C215.969 48.8971 215.93 49.3073 215.852 49.6328C215.786 49.9714 215.669 50.2383 215.5 50.4336C215.344 50.6419 215.129 50.7852 214.855 50.8633C214.582 50.9544 214.25 51 213.859 51C213.56 51 213.352 50.9479 213.234 50.8438C213.117 50.7526 213.059 50.6029 213.059 50.3945C213.059 50.3034 213.072 50.1406 213.098 49.9062C213.124 49.6719 213.15 49.3138 213.176 48.832C213.202 48.3633 213.228 47.7383 213.254 46.957C213.28 46.1888 213.293 45.2057 213.293 44.0078V33.207C213.293 31.7617 213.286 30.6094 213.273 29.75C213.26 28.8776 213.247 28.2005 213.234 27.7188C213.221 27.224 213.208 26.8724 213.195 26.6641C213.182 26.4557 213.176 26.2734 213.176 26.1172C213.176 25.987 213.241 25.8568 213.371 25.7266C213.501 25.5964 213.671 25.4792 213.879 25.375C214.087 25.2708 214.309 25.1862 214.543 25.1211C214.79 25.043 215.025 25.0039 215.246 25.0039C215.467 25.0039 215.643 25.0625 215.773 25.1797C215.904 25.2969 215.969 25.5052 215.969 25.8047V28.6758ZM219.777 26.7227C219.23 26.7227 218.723 26.9115 218.254 27.2891C217.798 27.6667 217.401 28.1549 217.062 28.7539C216.737 29.3398 216.477 29.9909 216.281 30.707C216.099 31.4232 216.008 32.1198 216.008 32.7969V35.043C216.008 35.7461 216.099 36.3841 216.281 36.957C216.477 37.5299 216.73 38.0182 217.043 38.4219C217.355 38.8255 217.72 39.138 218.137 39.3594C218.566 39.5677 219.016 39.6719 219.484 39.6719C220.591 39.6719 221.424 39.099 221.984 37.9531C222.557 36.8073 222.844 35.0104 222.844 32.5625C222.844 31.7292 222.785 30.9544 222.668 30.2383C222.551 29.5221 222.368 28.9036 222.121 28.3828C221.874 27.862 221.555 27.4583 221.164 27.1719C220.773 26.8724 220.311 26.7227 219.777 26.7227Z" fill="white"/>
<g clip-path="url(#clip0_10_76)">
<path d="M23.1242 42.25H18.7492V32.4672L31.932 19.2852C33.1445 18.0727 32.2859 16 30.5711 16H1.92734C0.212499 16 -0.646095 18.0727 0.566405 19.2852L13.7492 32.4672V42.25H9.37422C7.64844 42.25 6.24922 43.6492 6.24922 45.375C6.24922 45.7203 6.52891 46 6.87422 46H25.6242C25.9695 46 26.2492 45.7203 26.2492 45.375C26.2492 43.6492 24.85 42.25 23.1242 42.25ZM33.7492 6C28.8578 6 24.7375 9.14062 23.1883 13.5H27.293C28.5937 11.2695 30.9859 9.75 33.7492 9.75C37.8844 9.75 41.2492 13.1141 41.2492 17.25C41.2492 21.3859 37.8844 24.75 33.7492 24.75C32.6523 24.75 31.6172 24.5 30.6773 24.075L27.9227 26.8297C29.6266 27.8687 31.6078 28.5 33.7492 28.5C39.9625 28.5 44.9992 23.4633 44.9992 17.25C44.9992 11.0367 39.9625 6 33.7492 6Z" fill="white"/>
</g>
<defs>
<clipPath id="clip0_10_76">
<rect width="45" height="40" fill="white" transform="translate(0 6)"/>
</clipPath>
</defs>
</svg>
